HIERARCHY
ROOT Hips
{
	OFFSET 0.000000 0.000000 0.000000
	CHANNELS 6 Xposition Yposition Zposition Xrotation Yrotation Zrotation
	JOINT LeftUpLeg_virtual
	{
		OFFSET 0.000000 0.000000 0.000000
		CHANNELS 3 Xrotation Yrotation Zrotation
		JOINT LeftUpLeg
		{
			OFFSET 10.205400 -3.823500 0.155100
			CHANNELS 3 Xrotation Yrotation Zrotation
			JOINT LeftLeg
			{
				OFFSET 0.708757 -12.982077 0.567790
				CHANNELS 3 Xrotation Yrotation Zrotation
				JOINT LeftFoot
				{
					OFFSET -0.708756 -10.717838 -2.184338
					CHANNELS 3 Xrotation Yrotation Zrotation
					JOINT LeftToeBase
					{
						OFFSET 0.108149 -7.191104 7.560241
						CHANNELS 3 Xrotation Yrotation Zrotation
						JOINT LeftToe_End
						{
							OFFSET 0.070230 0.081724 4.490308
							CHANNELS 3 Xrotation Yrotation Zrotation
							End Site
							{
								OFFSET 0 0 0
							}
						}
					}
				}
			}
		}
	}
	JOINT RightUpLeg_virtual
	{
		OFFSET 0.000000 0.000000 0.000000
		CHANNELS 3 Xrotation Yrotation Zrotation
		JOINT RightUpLeg
		{
			OFFSET -10.205400 -3.823500 0.005500
			CHANNELS 3 Xrotation Yrotation Zrotation
			JOINT RightLeg
			{
				OFFSET -0.708756 -12.982134 0.610632
				CHANNELS 3 Xrotation Yrotation Zrotation
				JOINT RightFoot
				{
					OFFSET 0.708754 -10.717769 -1.945823
					CHANNELS 3 Xrotation Yrotation Zrotation
					JOINT RightToeBase
					{
						OFFSET -0.108140 -7.191069 7.372968
						CHANNELS 3 Xrotation Yrotation Zrotation
						JOINT RightToe_End
						{
							OFFSET -0.070227 0.081735 4.479403
							CHANNELS 3 Xrotation Yrotation Zrotation
							End Site
							{
								OFFSET 0 0 0
							}
						}
					}
				}
			}
		}
	}
	JOINT Spine_virtual
	{
		OFFSET 0.000000 0.000000 0.000000
		CHANNELS 3 Xrotation Yrotation Zrotation
		JOINT Spine
		{
			OFFSET 0.000000 6.876099 0.125700
			CHANNELS 3 Xrotation Yrotation Zrotation
			JOINT Spine1
			{
				OFFSET 0.000000 5.730043 0.104720
				CHANNELS 3 Xrotation Yrotation Zrotation
				JOINT Spine1_split
				{
					OFFSET 0.000000 5.730043 0.104720
					CHANNELS 3 Xrotation Yrotation Zrotation
					JOINT Spine2
					{
						OFFSET 0.000000 5.730043 0.104720
						CHANNELS 3 Xrotation Yrotation Zrotation
						JOINT Neck_virtual
						{
							OFFSET 0.000000 0.000000 0.000000
							CHANNELS 3 Xrotation Yrotation Zrotation
							JOINT Neck
							{
								OFFSET 0.000000 10.314075 0.188496
								CHANNELS 3 Xrotation Yrotation Zrotation
								JOINT Head
								{
									OFFSET 0.000000 7.643700 -2.377400
									CHANNELS 3 Xrotation Yrotation Zrotation
									JOINT HeadTop_End
									{
										OFFSET 0.000000 43.788605 -13.619600
										CHANNELS 3 Xrotation Yrotation Zrotation
										End Site
										{
											OFFSET 0 0 0
										}
									}
								}
							}
						}
						JOINT LeftShoulder_virtual
						{
							OFFSET 0.000000 0.000000 0.000000
							CHANNELS 3 Xrotation Yrotation Zrotation
							JOINT LeftShoulder
							{
								OFFSET 2.196100 4.412489 0.087492
								CHANNELS 3 Xrotation Yrotation Zrotation
								JOINT LeftShoulder_split
								{
									OFFSET 2.196100 4.412489 0.087492
									CHANNELS 3 Xrotation Yrotation Zrotation
									JOINT LeftArm
									{
										OFFSET 8.771219 -2.981674 -0.026999
										CHANNELS 3 Xrotation Yrotation Zrotation
										JOINT LeftForeArm
										{
											OFFSET 8.512804 0.000000 -0.000000
											CHANNELS 3 Xrotation Yrotation Zrotation
											JOINT LeftHand
											{
												OFFSET 18.484802 0.000000 -0.000000
												CHANNELS 3 Xrotation Yrotation Zrotation
												End Site
												{
													OFFSET 0 0 0
												}
											}
										}
									}
								}
							}
						}
						JOINT RightShoulder_virtual
						{
							OFFSET 0.000000 0.000000 0.000000
							CHANNELS 3 Xrotation Yrotation Zrotation
							JOINT RightShoulder
							{
								OFFSET -2.196100 4.412496 0.070690
								CHANNELS 3 Xrotation Yrotation Zrotation
								JOINT RightShoulder_split
								{
									OFFSET -2.196100 4.412496 0.070690
									CHANNELS 3 Xrotation Yrotation Zrotation
									JOINT RightArm
									{
										OFFSET -8.771282 -2.981682 -0.094208
										CHANNELS 3 Xrotation Yrotation Zrotation
										JOINT RightForeArm
										{
											OFFSET -8.494598 0.000000 0.000000
											CHANNELS 3 Xrotation Yrotation Zrotation
											JOINT RightHand
											{
												OFFSET -18.483803 0.000000 0.000001
												CHANNELS 3 Xrotation Yrotation Zrotation
												End Site
												{
													OFFSET 0 0 0
												}
											}
										}
									}
								}
							}
						}
					}
				}
			}
		}
	}
}
MOTION
Frames: 4
Frame Time: 0.03333333
-3.209545 8.245178 -33.798332 0.000000 0.000000 0.000000 -76.092399 24.458861 6.346906 -53.144155 -5.844093 31.937811 64.107520 0.548618 -8.848543 17.909425 11.366903 -26.383392 2.214926 -1.633290 11.726190 0.000000 0.000000 0.000000 -75.984775 31.552230 9.831233 -52.665345 7.904727 -46.516969 110.274101 20.649052 -0.818592 24.096018 -16.496589 42.479757 -1.096605 6.011978 -44.962227 0.000000 0.000000 0.000000 -79.720780 23.311176 2.274019 55.588406 12.567193 1.892682 5.823007 -0.401745 4.806528 -0.017774 0.106797 -0.025800 0.000000 0.000000 0.000000 16.746888 4.468945 3.151839 1.540831 -4.654563 -2.445145 -24.295362 -40.974892 -31.583447 0.000000 0.000000 0.000000 13.234769 1.432067 2.510861 -1.079382 -6.479786 -1.205808 11.801241 3.193681 -4.936203 -20.287028 -5.927339 -44.703831 -49.223049 -63.926117 -31.940458 0.000000 0.000000 0.000000 14.158718 2.199455 4.070211 -1.986282 -9.727390 13.060167 18.204056 12.022035 -4.646100 -38.594974 11.294691 48.246486 -31.461088 31.874799 13.640128 0.000000 0.000000 0.000000 
-3.443727 8.259384 -35.440758 0.000000 0.000000 0.000000 -78.882422 23.262497 5.687009 -48.942772 -8.219090 31.073123 63.923296 -0.881137 -6.045100 16.331310 11.729091 -23.549119 2.339854 -1.931523 11.621412 0.000000 0.000000 0.000000 -79.502473 31.245971 10.532677 -40.136657 8.652338 -40.358778 104.881694 20.090491 -3.103197 20.981882 -15.430514 45.441361 -8.063838 8.268524 -43.193030 0.000000 0.000000 0.000000 -82.924644 22.862573 2.152800 53.114037 12.064219 2.192317 6.405242 -1.098498 4.843764 0.035135 0.353294 -0.130399 0.000000 0.000000 0.000000 15.926113 3.768672 3.210142 1.040764 -3.506064 0.433309 -13.351381 -39.702910 -20.725582 0.000000 0.000000 0.000000 13.402841 0.810810 2.891422 -0.856574 -5.179173 -0.182311 11.332611 1.494457 -5.882868 -15.332110 -4.555408 -40.584933 -49.400887 -65.513836 -34.152069 0.000000 0.000000 0.000000 13.927614 1.550811 4.220957 -2.472235 -7.218606 14.917171 20.388420 10.736424 -4.767158 -24.995627 18.450052 46.710161 -28.987050 27.850854 10.722944 0.000000 0.000000 0.000000 
-3.670748 8.244370 -37.048409 0.000000 0.000000 0.000000 -81.549747 22.606056 4.718980 -45.410028 -10.000817 30.705990 64.809384 -2.087655 -3.612709 15.898898 11.227568 -20.921534 2.511369 -2.028010 11.155377 0.000000 0.000000 0.000000 -81.765950 31.046809 10.174857 -29.747639 12.159675 -34.179236 100.344406 19.449976 -5.552641 18.766821 -15.201983 44.701126 -12.777257 8.098422 -39.409389 0.000000 0.000000 0.000000 -85.760381 22.921266 1.769816 50.343504 10.652162 2.579463 6.244091 -2.032602 4.784409 0.243309 0.683975 -0.166348 0.000000 0.000000 0.000000 14.685009 2.867155 3.211194 1.015082 -2.571217 3.651419 -8.349486 -37.827780 -12.532642 0.000000 0.000000 0.000000 12.774546 0.022704 3.341742 -0.710400 -4.294119 1.095715 11.058965 -0.905304 -6.303518 -10.405411 -2.558096 -37.533522 -46.353943 -65.789393 -33.298347 0.000000 0.000000 0.000000 12.933230 0.613374 4.298714 -2.849266 -4.936463 15.927059 21.412295 9.540532 -4.889955 -11.226387 25.858044 43.800111 -26.202829 24.514715 7.952348 0.000000 0.000000 0.000000 
-3.880336 8.339298 -38.650284 0.000000 0.000000 0.000000 -84.087340 22.776132 4.232535 -42.241544 -10.684364 30.805085 65.372649 -2.761054 -1.875661 15.685676 10.411638 -18.529214 3.262149 -1.932404 10.530060 0.000000 0.000000 0.000000 -83.795944 30.758767 9.479436 -23.780497 16.722893 -29.217582 98.261253 18.170602 -6.975952 18.753041 -15.635088 40.377104 -10.257040 4.472596 -34.665519 0.000000 0.000000 0.000000 -88.263844 23.426828 1.579546 47.024555 8.218916 2.823674 5.225168 -3.227497 4.575758 0.348660 0.946014 -0.126364 0.000000 0.000000 0.000000 13.030984 1.749561 3.104285 1.583868 -1.800927 6.956263 -8.356404 -35.247355 -6.736562 0.000000 0.000000 0.000000 11.358516 -0.901823 3.752068 -0.707230 -3.795608 2.297170 11.508919 -3.344265 -6.381943 -5.028255 -0.119466 -35.709254 -39.643630 -64.413793 -28.874973 0.000000 0.000000 0.000000 11.169560 -0.665983 4.181493 -3.038584 -3.596468 15.944493 22.230512 8.002562 -4.987070 1.381563 32.010255 40.915172 -23.713327 25.242366 6.113149 0.000000 0.000000 0.000000 
